2015007_C4_03_grf
version=1
nRows=34
nColumns=19
inDegrees=no
endheader
time	ground_force_1_vx	ground_force_1_vy	ground_force_1_vz	ground_force_1_px	ground_force_1_py	ground_force_1_pz	ground_force_1_mx	ground_force_1_my	ground_force_1_mz	ground_force_2_vx	ground_force_2_vy	ground_force_2_vz	ground_force_2_px	ground_force_2_py	ground_force_2_pz	ground_force_2_mx	ground_force_2_my	ground_force_2_mz
      0.83000000	    -19.84547079	    474.81498122	     32.39182532	     -0.28306941	      0.00000000	      0.16144702	      0.00000000	     -0.25608071	      0.00000000	      0.00000000	      0.00000000	      0.00000000	      0.00000000	      0.00000000	      0.00000000	      0.00000000	      0.00000000	      0.00000000
      0.83100000	    -19.58115585	    474.08339009	     32.24015534	     -0.28272368	      0.00000000	      0.16138038	      0.00000000	     -0.26288212	      0.00000000	      0.00000000	      0.00000000	      0.00000000	      0.00000000	      0.00000000	      0.00000000	      0.00000000	      0.00000000	      0.00000000
      0.83200000	    -19.31939647	    473.38189185	     32.08644390	     -0.28237828	      0.00000000	      0.16131414	      0.00000000	     -0.26965192	      0.00000000	      0.00000000	      0.00000000	      0.00000000	      0.00000000	      0.00000000	      0.00000000	      0.00000000	      0.00000000	      0.00000000
      0.83300000	    -19.06077936	    472.71711007	     31.93044364	     -0.28203325	      0.00000000	      0.16124829	      0.00000000	     -0.27638312	      0.00000000	      0.00000000	      0.00000000	      0.00000000	      0.00000000	      0.00000000	      0.00000000	      0.00000000	      0.00000000	      0.00000000
      0.83400000	    -18.80463585	    472.08101302	     31.77281916	     -0.28168847	      0.00000000	      0.16118265	      0.00000000	     -0.28308377	     -0.00000000	      0.00000000	      0.00000000	      0.00000000	      0.00000000	      0.00000000	      0.00000000	      0.00000000	      0.00000000	      0.00000000
      0.83500000	    -18.55153590	    471.47985920	     31.61342144	     -0.28134395	      0.00000000	      0.16111718	      0.00000000	     -0.28974517	      0.00000000	      0.00000000	      0.00000000	      0.00000000	      0.00000000	      0.00000000	      0.00000000	      0.00000000	      0.00000000	      0.00000000
      0.83600000	    -18.30082759	    470.90582550	     31.45281672	     -0.28099962	      0.00000000	      0.16105176	      0.00000000	     -0.29637331	     -0.00000000	      0.00000000	      0.00000000	      0.00000000	      0.00000000	      0.00000000	      0.00000000	      0.00000000	      0.00000000	      0.00000000
      0.83700000	    -18.05305574	    470.36490962	     31.29096776	     -0.28065543	      0.00000000	      0.16098637	      0.00000000	     -0.30295511	      0.00000000	      0.00000000	      0.00000000	      0.00000000	      0.00000000	      0.00000000	      0.00000000	      0.00000000	      0.00000000	      0.00000000
      0.83800000	    -17.80759357	    469.84965354	     31.12832904	     -0.28031134	      0.00000000	      0.16092095	      0.00000000	     -0.30949698	     -0.00000000	      0.00000000	      0.00000000	      0.00000000	      0.00000000	      0.00000000	      0.00000000	      0.00000000	      0.00000000	      0.00000000
      0.83900000	    -17.56497100	    469.36555952	     30.96494377	     -0.27996731	      0.00000000	      0.16085542	      0.00000000	     -0.31598535	      0.00000000	      0.00000000	      0.00000000	      0.00000000	      0.00000000	      0.00000000	      0.00000000	      0.00000000	      0.00000000	      0.00000000
      0.84000000	    -17.32457988	    468.90571713	     30.80115616	     -0.27962329	      0.00000000	      0.16078977	      0.00000000	     -0.32242851	     -0.00000000	      0.00000000	      0.00000000	      0.00000000	      0.00000000	      0.00000000	      0.00000000	      0.00000000	      0.00000000	      0.00000000
      0.84100000	    -17.08692964	    468.47526357	     30.63708097	     -0.27927925	      0.00000000	      0.16072394	      0.00000000	     -0.32881151	      0.00000000	      0.00000000	      0.00000000	      0.00000000	      0.00000000	      0.00000000	      0.00000000	      0.00000000	      0.00000000	      0.00000000
      0.84200000	    -16.85142890	    468.06770563	     30.47295213	     -0.27893515	      0.00000000	      0.16065794	      0.00000000	     -0.33514244	     -0.00000000	      0.00000000	      0.00000000	      0.00000000	      0.00000000	      0.00000000	      0.00000000	      0.00000000	      0.00000000	      0.00000000
      0.84300000	    -16.61855914	    467.68799797	     30.30896634	     -0.27859094	      0.00000000	      0.16059174	      0.00000000	     -0.34140250	      0.00000000	      0.00000000	      0.00000000	      0.00000000	      0.00000000	      0.00000000	      0.00000000	      0.00000000	      0.00000000	      0.00000000
      0.84400000	    -16.38774388	    467.32998639	     30.14525175	     -0.27824658	      0.00000000	      0.16052537	      0.00000000	     -0.34760102	     -0.00000000	      0.00000000	      0.00000000	      0.00000000	      0.00000000	      0.00000000	      0.00000000	      0.00000000	      0.00000000	      0.00000000
      0.84500000	    -16.15943201	    466.99844301	     29.98208553	     -0.27790199	      0.00000000	      0.16045880	      0.00000000	     -0.35371672	      0.00000000	      0.00000000	      0.00000000	      0.00000000	      0.00000000	      0.00000000	      0.00000000	      0.00000000	      0.00000000	      0.00000000
      0.84600000	    -15.93305729	    466.68744832	     29.81951237	     -0.27755717	      0.00000000	      0.16039207	      0.00000000	     -0.35976228	     -0.00000000	      0.00000000	      0.00000000	      0.00000000	      0.00000000	      0.00000000	      0.00000000	      0.00000000	      0.00000000	      0.00000000
      0.84700000	    -15.70902020	    466.40148759	     29.65787202	     -0.27721197	      0.00000000	      0.16032511	      0.00000000	     -0.36571753	      0.00000000	      0.00000000	      0.00000000	      0.00000000	      0.00000000	      0.00000000	      0.00000000	      0.00000000	      0.00000000	      0.00000000
      0.84800000	    -15.48678428	    466.13498032	     29.49712873	     -0.27686643	      0.00000000	      0.16025795	      0.00000000	     -0.37159996	     -0.00000000	      0.00000000	      0.00000000	      0.00000000	      0.00000000	      0.00000000	      0.00000000	      0.00000000	      0.00000000	      0.00000000
      0.84900000	    -15.26670903	    465.89212492	     29.33768779	     -0.27652038	      0.00000000	      0.16019050	      0.00000000	     -0.37739032	      0.00000000	      0.00000000	      0.00000000	      0.00000000	      0.00000000	      0.00000000	      0.00000000	      0.00000000	      0.00000000	      0.00000000
      0.85000000	    -15.04828315	    465.66773206	     29.17943299	     -0.27617386	      0.00000000	      0.16012283	      0.00000000	     -0.38310589	     -0.00000000	      0.00000000	      0.00000000	      0.00000000	      0.00000000	      0.00000000	      0.00000000	      0.00000000	      0.00000000	      0.00000000
      0.85100000	    -14.83181398	    465.46573937	     29.02284414	     -0.27582672	      0.00000000	      0.16005485	      0.00000000	     -0.38872934	      0.00000000	      0.00000000	      0.00000000	      0.00000000	      0.00000000	      0.00000000	      0.00000000	      0.00000000	      0.00000000	      0.00000000
      0.85200000	    -14.61682282	    465.28116614	     28.86772156	     -0.27547902	      0.00000000	      0.15998661	      0.00000000	     -0.39428031	     -0.00000000	      0.00000000	      0.00000000	      0.00000000	      0.00000000	      0.00000000	      0.00000000	      0.00000000	      0.00000000	      0.00000000
      0.85300000	    -14.40357184	    465.11776745	     28.71459872	     -0.27513062	      0.00000000	      0.15991805	      0.00000000	     -0.39974287	      0.00000000	      0.00000000	      0.00000000	      0.00000000	      0.00000000	      0.00000000	      0.00000000	      0.00000000	      0.00000000	      0.00000000
      0.85400000	    -14.19163030	    464.97079730	     28.56319547	     -0.27478162	      0.00000000	      0.15984921	      0.00000000	     -0.40513747	     -0.00000000	      0.00000000	      0.00000000	      0.00000000	      0.00000000	      0.00000000	      0.00000000	      0.00000000	      0.00000000	      0.00000000
      0.85500000	    -13.98121845	    464.84382823	     28.41409147	     -0.27443187	      0.00000000	      0.15978003	      0.00000000	     -0.41045169	      0.00000000	      0.00000000	      0.00000000	      0.00000000	      0.00000000	      0.00000000	      0.00000000	      0.00000000	      0.00000000	      0.00000000
      0.85600000	    -13.77194095	    464.73240107	     28.26693952	     -0.27408150	      0.00000000	      0.15971056	      0.00000000	     -0.41570620	     -0.00000000	      0.00000000	      0.00000000	      0.00000000	      0.00000000	      0.00000000	      0.00000000	      0.00000000	      0.00000000	      0.00000000
      0.85700000	    -13.56396358	    464.63985369	     28.12237889	     -0.27373030	      0.00000000	      0.15964070	      0.00000000	     -0.42089122	      0.00000000	      0.00000000	      0.00000000	      0.00000000	      0.00000000	      0.00000000	      0.00000000	      0.00000000	      0.00000000	      0.00000000
      0.85800000	    -13.35693523	    464.56196159	     27.98000574	     -0.27337843	      0.00000000	      0.15957051	      0.00000000	     -0.42602429	     -0.00000000	      0.00000000	      0.00000000	      0.00000000	      0.00000000	      0.00000000	      0.00000000	      0.00000000	      0.00000000	      0.00000000
      0.85900000	    -13.15098489	    464.50195834	     27.84051299	     -0.27302565	      0.00000000	      0.15949988	      0.00000000	     -0.43109700	      0.00000000	      0.00000000	      0.00000000	      0.00000000	      0.00000000	      0.00000000	      0.00000000	      0.00000000	      0.00000000	      0.00000000
      0.86000000	    -12.94581685	    464.45588022	     27.70344019	     -0.27267211	      0.00000000	      0.15942888	      0.00000000	     -0.43612531	     -0.00000000	      0.00000000	      0.00000000	      0.00000000	      0.00000000	      0.00000000	      0.00000000	      0.00000000	      0.00000000	      0.00000000
      0.86100000	    -12.74153078	    464.42675218	     27.56952643	     -0.27231758	      0.00000000	      0.15935738	     -0.00000000	     -0.44110259	      0.00000000	      0.00000000	      0.00000000	      0.00000000	      0.00000000	      0.00000000	      0.00000000	      0.00000000	      0.00000000	      0.00000000
      0.86200000	    -12.53787335	    464.41087127	     27.43825614	     -0.27196222	      0.00000000	      0.15928547	      0.00000000	     -0.44604243	     -0.00000000	      0.00000000	      0.00000000	      0.00000000	      0.00000000	      0.00000000	      0.00000000	      0.00000000	      0.00000000	      0.00000000
      0.86300000	    -12.33490789	    464.41113204	     27.31043100	     -0.27160580	      0.00000000	      0.15921301	     -0.00000000	     -0.45093962	      0.00000000	      0.00000000	      0.00000000	      0.00000000	      0.00000000	      0.00000000	      0.00000000	      0.00000000	      0.00000000	      0.00000000
